<svg xmlns="http://www.w3.org/2000/svg" width="1600" height="900" viewBox="0 0 1600 900" fill="none">
  <defs>
    <linearGradient id="bg" x1="0" y1="0" x2="1600" y2="900" gradientUnits="userSpaceOnUse">
      <stop stop-color="#121417"/>
      <stop offset="1" stop-color="#1C2128"/>
    </linearGradient>
    <linearGradient id="card" x1="0" y1="0" x2="1" y2="1">
      <stop stop-color="#242B34"/>
      <stop offset="1" stop-color="#1A1F26"/>
    </linearGradient>
    <linearGradient id="accent" x1="0" y1="0" x2="1" y2="1">
      <stop stop-color="#FF6600"/>
      <stop offset="1" stop-color="#FF8C42"/>
    </linearGradient>
    <filter id="shadow" x="0" y="0" width="200%" height="200%">
      <feDropShadow dx="0" dy="16" stdDeviation="24" flood-color="#000000" flood-opacity="0.28"/>
    </filter>
  </defs>

  <rect width="1600" height="900" fill="url(#bg)"/>
  <circle cx="1320" cy="120" r="260" fill="#FF6600" fill-opacity="0.08"/>
  <circle cx="220" cy="760" r="220" fill="#FF6600" fill-opacity="0.06"/>

  <g opacity="0.14">
    <path d="M0 760C240 680 420 690 640 760C880 836 1100 844 1600 690" stroke="#FF6600" stroke-width="2"/>
    <path d="M0 800C280 710 510 730 760 800C1030 876 1260 872 1600 760" stroke="#FF6600" stroke-width="2"/>
  </g>

  <g filter="url(#shadow)">
    <rect x="160" y="160" width="560" height="560" rx="28" fill="url(#card)" stroke="#313844"/>
    <rect x="208" y="222" width="132" height="132" rx="20" fill="url(#accent)"/>
    <path d="M244 244H304V270H278V332H244V244Z" fill="#FFF6EF"/>
    <path d="M304 244H330V332H304V244Z" fill="#FFF6EF"/>
    <rect x="208" y="394" width="464" height="18" rx="9" fill="#E6EDF3" fill-opacity="0.9"/>
    <rect x="208" y="432" width="404" height="14" rx="7" fill="#9DA7B3" fill-opacity="0.72"/>
    <rect x="208" y="466" width="438" height="14" rx="7" fill="#9DA7B3" fill-opacity="0.72"/>
    <rect x="208" y="500" width="366" height="14" rx="7" fill="#9DA7B3" fill-opacity="0.72"/>

    <rect x="208" y="560" width="220" height="110" rx="18" fill="#1F252D" stroke="#2C3440"/>
    <rect x="238" y="592" width="90" height="10" rx="5" fill="#FF8C42"/>
    <rect x="238" y="620" width="156" height="10" rx="5" fill="#AAB4BE" fill-opacity="0.8"/>
    <rect x="238" y="646" width="130" height="10" rx="5" fill="#AAB4BE" fill-opacity="0.6"/>

    <rect x="452" y="560" width="220" height="110" rx="18" fill="#1F252D" stroke="#2C3440"/>
    <rect x="482" y="592" width="90" height="10" rx="5" fill="#FF8C42"/>
    <rect x="482" y="620" width="156" height="10" rx="5" fill="#AAB4BE" fill-opacity="0.8"/>
    <rect x="482" y="646" width="130" height="10" rx="5" fill="#AAB4BE" fill-opacity="0.6"/>
  </g>

  <g filter="url(#shadow)">
    <rect x="820" y="170" width="620" height="160" rx="26" fill="#1A2027" stroke="#313844"/>
    <rect x="860" y="214" width="126" height="12" rx="6" fill="#FF8C42"/>
    <rect x="860" y="252" width="494" height="16" rx="8" fill="#E6EDF3" fill-opacity="0.92"/>
    <rect x="860" y="286" width="388" height="12" rx="6" fill="#AAB4BE" fill-opacity="0.72"/>
  </g>

  <g filter="url(#shadow)">
    <rect x="820" y="376" width="290" height="160" rx="24" fill="#1A2027" stroke="#313844"/>
    <rect x="850" y="414" width="98" height="10" rx="5" fill="#FF8C42"/>
    <rect x="850" y="446" width="214" height="12" rx="6" fill="#E6EDF3" fill-opacity="0.88"/>
    <rect x="850" y="474" width="176" height="10" rx="5" fill="#AAB4BE" fill-opacity="0.7"/>
  </g>

  <g filter="url(#shadow)">
    <rect x="1150" y="376" width="290" height="160" rx="24" fill="#1A2027" stroke="#313844"/>
    <rect x="1180" y="414" width="98" height="10" rx="5" fill="#FF8C42"/>
    <rect x="1180" y="446" width="214" height="12" rx="6" fill="#E6EDF3" fill-opacity="0.88"/>
    <rect x="1180" y="474" width="176" height="10" rx="5" fill="#AAB4BE" fill-opacity="0.7"/>
  </g>

  <g filter="url(#shadow)">
    <rect x="820" y="582" width="620" height="138" rx="26" fill="#1A2027" stroke="#313844"/>
    <rect x="860" y="620" width="136" height="12" rx="6" fill="#FF8C42"/>
    <rect x="860" y="656" width="500" height="14" rx="7" fill="#E6EDF3" fill-opacity="0.9"/>
    <rect x="860" y="688" width="334" height="10" rx="5" fill="#AAB4BE" fill-opacity="0.7"/>
  </g>
</svg>
